<?xml version="1.0" encoding="UTF-8"?>
<svg id="Layer_1" xmlns="http://www.w3.org/2000/svg" viewBox="0 0 790.25 595.28">
  <defs>
    <style>
      .cls-1, .cls-2, .cls-3 {
        fill: none;
      }

      .cls-1, .cls-2, .cls-3, .cls-4, .cls-5 {
        stroke-miterlimit: 10;
      }

      .cls-1, .cls-3 {
        stroke-width: 4px;
      }

      .cls-1, .cls-4, .cls-5 {
        stroke: #83363c;
      }

      .cls-2, .cls-3 {
        stroke: #ed7023;
      }

      .cls-2, .cls-4 {
        stroke-width: 2px;
      }

      .cls-6 {
        fill: #ed7023;
      }

      .cls-4, .cls-5, .cls-7 {
        fill: #83363c;
      }
    </style>
  </defs>
  <path class="cls-3" d="M113.64,178.89c5.94-.78,14.63-1.22,24.82.73,10.35,1.98,18.46,5.71,24,8.87,1.62.92,3.11,2.05,4.44,3.36,3.37,3.32,7.7,8.52,10.82,15.84,2.22,5.2,3.19,9.99,3.62,13.72.17,1.5.2,3.01.05,4.51-.35,3.44-1.56,9.11-5.81,14.48-5.66,7.16-13.16,9.28-16.02,9.89-.48.1-.94.21-1.41.35-6.55,1.85-15.3,3.62-25.68,3.83-10.67.21-19.78-1.29-26.74-3.02-2.46-.62-4.79-1.68-6.86-3.15-4.46-3.15-9.22-6.88-14.09-11.25-4.64-4.17-8.66-8.3-12.12-12.19-.42-.47-.81-.95-1.18-1.46-4.78-6.44-9.55-12.88-14.33-19.31-1.16-1.57-2.52-2.97-4.08-4.15-4.17-3.16-9.18-7.69-13.85-13.95-7.03-9.43-10.3-18.78-11.9-25.19-.4-1.6-.61-3.23-.64-4.87-.1-4.86.3-11.16,2.15-18.25,1.8-6.94,4.43-12.47,6.71-16.45,1.67-2.95,4.11-6.47,7.66-9.84,7.74-7.36,16.59-10.09,22.07-11.17,1.61-.32,3.25-.43,4.89-.36,15.57.68,31.15,1.36,46.72,2.04,13.07.57,10.92-.57,17.93-.39,28.39.74,38.18,8.21,67.37,10.48,2.85.22,6.69.45,11.34.54,5.86.1,11.53-2.22,15.59-6.45,6.58-6.85,15.28-15.33,25.97-24.36,26.24-22.17,63.48-53.63,116.48-62.06,16.44-2.61,46.13-4.88,83.69,6.67,15.92,5.77,36.85,15.22,58.78,30.93,23.01,16.49,39.39,34.32,50.46,48.57,3.2,4.12,7.82,6.93,12.96,7.79,1.57.26,3.27.44,5.07.51,8.99.33,15.95-2.47,19.63-4.31.37-.18.74-.37,1.12-.53,11.32-4.99,21.29-7.28,29.16-8.38,15.11-2.1,23.13.14,42.42-.54,11.58-.41,21.5-1.67,29.24-2.97,1.02-.17,2.06-.29,3.09-.31,26.38-.46,49.41,12.13,57.55,31.41,7.8,18.48.39,39.45-.61,42.19-2.13,5.8-5.09,10.49-11.01,19.87-5.7,9.03-10.7,16.85-19.26,24.76-5.15,4.76-10.14,8.22-14.19,10.68-1.99,1.2-3.76,2.75-5.23,4.55-3.28,4.03-8.01,8.89-14.51,13.21-1.73,1.15-31.4,20.21-59.92,6.73-5.26-2.49-16.76-7.92-20.79-19.87-4.71-13.96,2.45-31.83,14.06-39.13,12.58-7.9,27.28-14.66,39.75-11.01,3.62,1.06,4.67,2.17,8.56,2.75,10.64,1.6,20.3-4.02,26.9-9.17,11.84-9.22,23.87-27.3,18.65-39.75-.36-.86-2.97-6.85-8.25-8.25-4.7-1.24-9.13,1.77-11.31,3.06-5.87,3.46-15.75,6.39-33.21,3.49-.48-.08-.97-.18-1.44-.3-18.02-4.31-32.18-3.92-41.48-2.88-27.37,3.04-40.63,14.74-62.68,10.39-6.87-1.35-12.65-3.89-17.23-6.5-7.26-4.14-16.35-3.94-23.01,1.1-.34.26-.69.53-1.03.81-7.84,6.5-9.74,14.98-10.19,17.38-1.34,9.98-2.67,19.96-4.01,29.94-.11.86-.28,1.7-.5,2.53-2.37,9-5.83,19.52-10.99,30.85-5.07,11.13-10.62,20.51-15.77,28.12-.52.76-1.08,1.49-1.7,2.17-4.62,5.11-10.89,13.3-15.55,24.74-5.07,12.44-6.12,23.53-6.22,30.58,0,.47,0,.92.03,1.39.78,14.07.67,30.53-1.39,48.77-1.47,12.99-3.7,24.8-6.23,35.26-3.54,18.16-7.07,36.32-10.61,54.47-.11.58-.2,1.16-.26,1.75-2.12,19.45-4.24,38.89-6.36,58.34-.86,11.82-1.23,24.93-.75,39.11.09,2.75.22,5.47.37,8.13.73,13.01-10.35,23.46-23.3,22.1-6.26-.66-13.13-.93-20.48-.57-2.43.12-4.79.3-7.08.54-12.77,1.31-23.65-9.16-23.08-21.99.14-3.24.22-6.59.2-10.04-.07-15.33-1.83-28.68-3.98-39.47l-8.25-54.09c-3.02-16.49-6.03-32.99-9.05-49.48-.08-.44-.15-.88-.2-1.32-2.78-23.55-5.56-47.09-8.35-70.64-.15-1.24-.13-2.09-.15-2.32-1.67-27.82.83-30.02-.83-39.5,0,0-2.64-15.01-17.2-33.94-.8-1.04-4.4-5.82-9.07-12.56-1.1-1.59-2.32-3.43-3.77-5.79-5.74-9.31-10.77-17.47-14.06-29.04-2.26-7.93-2.37-15.23-4.59-29.35-.42-2.71-1.79-11.42-2.34-14.93-.06-.4-.11-.8-.15-1.2-.28-2.81-1.61-11.15-8.82-17.81-2.14-1.97-4.38-3.42-6.58-4.49-6.32-3.07-13.77-2.49-19.8,1.12-6.38,3.82-16.24,8.33-28.96,9.49-17.34,1.58-30.68-3.91-36.83-6.99-.97-.48-1.98-.89-3.01-1.21-19-5.86-32.61-4.63-41.79-2.19-6.8,1.81-15.67,5.47-28.43,4.59-3.68-.26-6.98-.84-9.81-1.53-3.06-.75-5.91-2.18-8.35-4.17-3.9-3.18-9.23-3.98-13.64-1.94-4.45,2.07-7.33,6.75-7.34,11.92.02,3.67.57,14.61,8.56,24.15,13.52,16.14,35.53,12.99,36.81,12.78Z"/>
  <ellipse class="cls-6" cx="671.85" cy="231.37" rx="2.8" ry="3.06" transform="translate(290.65 831.03) rotate(-76.56)"/>
  <ellipse class="cls-1" cx="671.75" cy="232.02" rx="11.29" ry="12.1" transform="translate(-22.08 385.89) rotate(-31.56)"/>
  <ellipse class="cls-5" cx="690.86" cy="200.37" rx="2.8" ry="3.06" transform="translate(335.39 825.74) rotate(-76.56)"/>
  <ellipse class="cls-2" cx="690.76" cy="201.03" rx="12.1" ry="11.29" transform="translate(334.67 826.14) rotate(-76.56)"/>
  <ellipse class="cls-6" cx="657.18" cy="201.21" rx="2.8" ry="3.06" transform="translate(308.72 793.61) rotate(-76.56)"/>
  <ellipse class="cls-2" cx="657.07" cy="201.86" rx="12.1" ry="11.29" transform="translate(308.01 794.01) rotate(-76.56)"/>
  <ellipse class="cls-6" cx="641.1" cy="232.9" rx="2.8" ry="3.06" transform="translate(265.56 802.3) rotate(-76.56)"/>
  <ellipse class="cls-2" cx="640.99" cy="233.55" rx="12.1" ry="11.29" transform="translate(264.84 802.7) rotate(-76.56)"/>
  <ellipse class="cls-2" cx="155.28" cy="232.6" rx="12.1" ry="11.29" transform="translate(-107.05 329.56) rotate(-76.56)"/>
  <ellipse class="cls-2" cx="121.96" cy="231.34" rx="12.1" ry="11.29" transform="translate(-131.39 296.18) rotate(-76.56)"/>
  <ellipse class="cls-6" cx="153.59" cy="202.94" rx="2.8" ry="3.06" transform="translate(-79.49 305.14) rotate(-76.56)"/>
  <path class="cls-2" d="M150.77,218.38c-6.06-1.45-9.72-7.89-8.16-14.4s7.62-13.62,13.69-12.17,9.82,10.91,8.27,17.42-7.73,10.6-13.79,9.15Z"/>
  <ellipse class="cls-6" cx="123.8" cy="198.13" rx="2.8" ry="3.06" transform="translate(-97.68 272.49) rotate(-76.56)"/>
  <ellipse class="cls-2" cx="123.7" cy="198.79" rx="12.1" ry="11.29" transform="translate(-98.4 272.89) rotate(-76.56)"/>
  <ellipse class="cls-6" cx="94.36" cy="217.36" rx="2.8" ry="3.06" transform="translate(-138.99 258.61) rotate(-76.56)"/>
  <ellipse class="cls-6" cx="155.28" cy="231.34" rx="2.8" ry="3.06" transform="translate(-105.82 328.59) rotate(-76.56)"/>
  <ellipse class="cls-6" cx="121.96" cy="232.6" rx="2.8" ry="3.06" transform="translate(-132.62 297.16) rotate(-76.56)"/>
  <ellipse class="cls-2" cx="94.25" cy="218.02" rx="12.1" ry="11.29" transform="translate(-139.7 259.01) rotate(-76.56)"/>
  <ellipse class="cls-4" cx="683.29" cy="113.94" rx="2.8" ry="3.06" transform="translate(413.64 752.03) rotate(-76.56)"/>
  <ellipse class="cls-1" cx="683.19" cy="114.59" rx="12.1" ry="11.29" transform="translate(412.93 752.43) rotate(-76.56)"/>
  <path class="cls-7" d="M80.18,127.89c4.41,10.72,16.4,15.19,27.31,14.75,6.96-.28,13.73-2.12,20.43-3.91s12.83-3.23,19.38-4.19c12.82-1.89,26.45-1.64,38.5,3.62,5.97,2.6,11.51,6.1,17.75,8.11,5.32,1.71,10.96,2.52,16.54,2.46,12.79-.13,25.41-4.75,35.04-13.21,1.82-1.6-.84-4.24-2.65-2.65-8.09,7.11-18.63,11.28-29.36,12-5.26.35-10.55-.07-15.66-1.37-6-1.53-11.31-4.5-16.83-7.2s-11.8-4.8-18.15-5.74-12.51-1.02-18.78-.49-12.63,1.62-18.83,3.05c-6.51,1.5-12.9,3.55-19.47,4.81s-13.26,1.58-19.6-.64c-5.08-1.78-9.9-5.29-11.99-10.39-.38-.93-1.25-1.61-2.31-1.31-.88.25-1.7,1.36-1.31,2.31h0Z"/>
  <path class="cls-7" d="M222.7,104.67c-11.19,1.39-22.46,2.74-33.75,2.29-5.6-.22-11.18-.91-16.61-2.32-2.65-.69-5.26-1.54-7.8-2.57s-5.09-2.32-7.7-3.33c-5.67-2.18-11.67-2.13-17.65-2.18s-12.45-.1-18.68-.13c-12.45-.05-24.9-.05-37.35.02-1.47,0-3.05-.02-4.38.72-1.2.67-1.97,1.88-2.31,3.19-.73,2.82-.39,6.13-.14,8.99.55,6.46,2.19,12.69,4.81,18.61.41.93,1.76,1.13,2.57.67.96-.55,1.08-1.64.67-2.57-2.18-4.92-3.63-10.24-4.19-15.59-.28-2.65-.42-5.37-.25-8.03.05-.82.12-1.84,1.01-2.13,1.15-.38,2.76-.12,3.96-.13,11.95-.06,23.91-.06,35.86-.01,5.98.03,11.95.07,17.93.12,5.66.05,11.34-.11,16.73,1.89,2.55.95,4.99,2.18,7.5,3.23s4.99,1.89,7.57,2.6c5.15,1.41,10.47,2.18,15.79,2.54,12.17.81,24.36-.65,36.43-2.15,1-.13,1.88-.77,1.88-1.88,0-.92-.86-2-1.88-1.88h0Z"/>
  <path class="cls-7" d="M223.42,108.49c2.96.16,5.58,1.72,7.89,3.48,2.69,2.05,5.19,4.38,7.76,6.59s5.06,4.18,7.36,6.49c1.91,1.92,3.65,4.17,3.53,7.01-.11,2.41,3.64,2.41,3.75,0,.31-7.19-7.21-12.03-11.99-16.15-5.27-4.55-10.88-10.78-18.3-11.17-2.41-.13-2.4,3.62,0,3.75h0Z"/>
  <path class="cls-1" d="M451.81,283.36c12.37,14.06,11.26,34.63,8.52,75.2-5.09,75.43-22.28,78.67-22.97,136.67-.4,33.36,4.89,65.89-8.76,71.8-5.64,2.44-9.87-1.68-27.7-1.63-18.76.06-21.93,4.64-27.84,2.2-14.9-6.17-8.79-41.14-12.75-86.12-3.27-37.16-9.11-32.35-18.19-87.03-10.09-60.75-15.14-91.12-1.07-108.33,23.73-29.02,86.1-30.77,110.75-2.75Z"/>
  <path class="cls-1" d="M281.9,75.61c23.94-52.23,107.23-54.29,116.25-54.34,8.56-.05,94.49.46,118.32,52.28,11.2,24.36,3.57,51.55-11.69,105.94-12.68,45.19-18.18,54.57-24.08,59.85-17.64,15.78-39.86,15.8-81.17,15.82-42.59.03-63.89.04-81.86-15.13-15.25-12.88-19.78-31.23-28.2-67.41-11.68-50.18-17.53-75.27-7.57-96.99Z"/>
  <path class="cls-1" d="M709.08,180.17c-4.26-2.32-7.39.94-19.02,2.9-19.53,3.3-25.27-3.44-37.73-1.14-16.5,3.04-36.04,20.29-34.6,39.54,1.38,18.35,21.21,30.1,35.98,33.21,23.03,4.84,45.43-8.91,55.37-26.35,10.07-17.66,9.57-42.95,0-48.15Z"/>
</svg>